<?xml version="1.0" standalone="no"?>
<!DOCTYPE svg PUBLIC "-//W3C//DTD SVG 20010904//EN"
 "http://www.w3.org/TR/2001/REC-SVG-20010904/DTD/svg10.dtd">
<svg version="1.0" xmlns="http://www.w3.org/2000/svg"
 width="2000.000000pt" height="1500.000000pt" viewBox="0 0 2000.000000 1500.000000"
 preserveAspectRatio="xMidYMid meet">

<g transform="translate(0.000000,1500.000000) scale(0.100000,-0.100000)"
fill="#000000" stroke="none">
<path d="M0 7500 l0 -7500 10000 0 10000 0 0 7500 0 7500 -10000 0 -10000 0 0
-7500z m7360 4270 c43 -43 11 -120 -50 -120 -38 0 -70 32 -70 70 0 38 32 70
70 70 17 0 39 -9 50 -20z m-952 -56 c31 -36 29 -79 -7 -115 -16 -16 -39 -29
-51 -29 -36 0 -77 28 -88 60 -32 92 81 158 146 84z m896 -351 c10 -137 22
-254 28 -260 28 -34 80 3 178 125 35 44 66 80 67 78 2 -2 -6 -88 -17 -192 -11
-104 -20 -194 -20 -200 0 -7 -27 -13 -72 -16 -117 -7 -218 -55 -393 -186 -168
-126 -278 -255 -304 -357 -6 -25 -17 -45 -24 -45 -6 0 -99 14 -206 32 -156 25
-190 34 -170 41 97 39 232 113 246 134 15 23 15 25 -3 42 -10 10 -120 53 -244
96 -124 43 -229 81 -233 85 -4 4 54 10 130 13 255 12 398 40 409 80 15 63 -59
269 -250 691 -31 67 -39 71 94 -39 290 -239 472 -365 529 -365 11 0 31 15 45
33 29 38 100 209 147 355 18 56 36 102 39 102 4 0 14 -111 24 -247z m336 67
c24 -24 25 -48 4 -78 -31 -44 -104 -20 -104 35 0 57 61 82 100 43z m-1576
-621 c13 -7 30 -24 36 -40 24 -58 -37 -117 -95 -91 -54 25 -57 103 -5 129 31
16 33 16 64 2z m1478 -16 c29 -26 20 -97 -21 -161 -44 -69 -169 -191 -271
-263 -235 -169 -424 -202 -424 -76 0 57 45 128 144 227 220 220 489 349 572
273z m-1226 -378 c26 -27 26 -55 -1 -84 -20 -21 -66 -17 -87 9 -24 29 -23 49
4 77 28 30 53 29 84 -2z m2423 -149 c502 -66 848 -213 1106 -471 161 -161 261
-335 315 -548 88 -348 54 -715 -93 -1001 -172 -336 -480 -563 -923 -679 -118
-31 -129 -36 -129 -57 0 -21 10 -26 105 -51 496 -130 853 -446 1131 -1000 85
-170 134 -301 228 -604 277 -898 471 -1191 898 -1351 35 -13 63 -22 63 -20 0
2 -119 448 -265 992 -146 544 -265 996 -265 1004 0 8 93 222 206 475 l205 459
53 243 c29 134 55 245 57 248 6 5 300 85 315 85 7 0 60 -121 118 -268 l106
-269 -80 -355 c-44 -196 -80 -361 -80 -366 0 -5 36 1 80 13 l80 23 0 -959 0
-959 721 -2 721 -3 -949 -254 c-521 -140 -955 -256 -964 -258 -11 -3 -19 6
-25 29 l-10 33 -239 6 c-247 6 -316 15 -455 60 -281 91 -491 316 -654 701 -75
177 -130 339 -216 633 -126 431 -215 658 -350 894 -262 456 -638 709 -1132
761 -51 5 -121 10 -155 10 l-63 0 0 75 0 75 68 0 c93 0 280 17 384 35 293 51
549 187 696 369 112 137 189 316 229 526 25 134 25 504 0 639 -93 495 -360
766 -863 873 -89 19 -140 21 -516 25 l-418 5 0 -2841 0 -2841 -290 0 -290 0 0
2938 c0 1616 3 2942 8 2946 4 4 322 6 707 3 567 -4 724 -8 824 -21z m-109
-855 c0 -25 -5 -30 -32 -36 -70 -14 -158 -47 -214 -81 l-59 -35 -18 22 c-18
22 -18 23 5 41 38 30 165 88 226 102 86 21 92 20 92 -13z m275 2 c58 -18 132
-54 187 -91 l39 -25 -22 -24 c-19 -20 -25 -21 -38 -9 -45 39 -162 90 -253 110
-23 5 -28 12 -28 37 0 29 1 30 33 24 17 -3 55 -13 82 -22z m-70 -145 c3 -3 3
-16 0 -29 -6 -24 -8 -24 -128 -24 -70 0 -125 4 -129 10 -15 20 -8 44 15 49 29
6 235 1 242 -6z m-375 -78 c9 -17 1 -29 -64 -92 -40 -40 -78 -81 -83 -92 -10
-17 -11 -18 -36 -1 l-27 17 29 42 c39 56 139 146 162 146 5 0 13 -9 19 -20z
m565 -19 c49 -37 125 -127 125 -148 0 -5 -11 -15 -24 -21 -23 -10 -27 -8 -46
22 -20 34 -86 99 -128 126 -21 14 -22 16 -7 38 9 12 19 22 22 22 3 0 30 -18
58 -39z m-834 -1 c25 -14 24 -21 -13 -76 -31 -46 -88 -192 -88 -226 0 -13 -8
-18 -30 -18 -35 0 -37 9 -16 85 17 65 49 138 88 197 33 53 32 52 59 38z m1072
-17 c29 -34 87 -161 104 -232 9 -39 15 -72 12 -74 -2 -2 -16 -7 -31 -11 -23
-5 -28 -3 -28 13 0 39 -50 177 -85 235 -34 55 -35 59 -18 72 23 18 27 17 46
-3z m-494 -79 c45 -46 47 -47 114 -48 81 -1 88 -8 86 -91 -2 -59 -1 -61 45
-106 26 -27 46 -56 46 -68 0 -12 -19 -41 -45 -67 -44 -43 -45 -46 -45 -108 0
-80 -11 -91 -97 -91 -60 -1 -66 -3 -89 -33 -14 -18 -39 -39 -55 -48 -28 -14
-32 -13 -59 6 -16 11 -39 33 -50 47 -19 24 -28 27 -90 27 -42 1 -74 6 -82 14
-8 8 -13 39 -13 81 0 65 -2 69 -33 96 -18 15 -39 40 -47 55 -13 25 -12 30 11
62 14 19 36 41 48 48 21 11 23 19 22 82 -1 89 11 101 101 96 57 -4 63 -2 75
20 14 27 75 72 97 72 7 0 34 -21 60 -46z m5651 -1074 l0 -919 -42 -11 c-24 -6
-84 -22 -134 -36 -51 -13 -94 -24 -98 -24 -3 0 -6 347 -6 770 l0 770 -907 -2
-908 -3 -3 -1477 -2 -1478 714 0 c672 0 715 -1 720 -17 3 -10 28 -106 57 -213
28 -107 53 -197 54 -198 2 -2 123 28 269 67 146 39 270 71 276 71 6 0 10 -66
10 -185 l0 -185 -1190 0 -1190 0 0 1995 0 1995 1190 0 1190 0 0 -920z m-6163
885 c2 -1 -2 -28 -8 -60 -10 -52 -7 -119 7 -166 3 -12 -5 -20 -25 -27 -30 -10
-31 -10 -38 26 -10 45 -9 177 0 215 7 24 11 26 35 21 15 -4 28 -8 29 -9z m957
-16 c8 -40 8 -187 0 -217 -5 -18 -13 -22 -31 -20 l-25 3 -2 127 c-1 120 0 128
19 131 11 2 23 5 26 6 4 0 9 -13 13 -30z m-1121 -223 c8 -59 40 -140 81 -209
l34 -56 -23 -15 c-22 -15 -25 -14 -45 11 -52 66 -122 258 -107 296 3 9 17 17
30 17 21 0 25 -6 30 -44z m1275 25 c28 -17 -43 -218 -104 -298 -24 -32 -26
-32 -49 -17 l-24 16 34 53 c40 62 71 137 86 206 11 50 26 60 57 40z m-1039
-175 c21 -34 74 -86 120 -118 22 -15 23 -20 13 -43 -11 -23 -14 -24 -34 -14
-46 25 -101 75 -139 129 l-40 54 23 13 c32 17 34 17 57 -21z m806 20 c18 -13
18 -14 -3 -48 -24 -38 -115 -128 -149 -146 -18 -10 -23 -8 -37 12 -15 24 -14
25 39 65 29 22 68 61 86 86 36 50 37 51 64 31z m-367 -209 c31 6 57 10 58 9 1
0 4 -13 8 -28 5 -24 3 -29 -21 -35 -43 -12 -221 -9 -234 4 -7 7 -9 22 -6 35 6
24 8 24 72 14 44 -6 84 -6 123 1z m-392 -72 c66 -40 146 -72 204 -81 34 -6 40
-10 40 -31 0 -32 -20 -37 -82 -23 -56 13 -198 77 -236 107 -21 17 -21 20 -7
41 9 12 18 22 19 22 2 0 30 -16 62 -35z m722 13 c21 -21 13 -35 -36 -67 -57
-36 -159 -76 -230 -89 l-52 -9 0 33 c0 29 3 34 24 34 42 0 149 38 206 74 62
38 71 41 88 24z m5512 -866 l0 -248 -45 -12 c-25 -7 -50 -12 -55 -12 -6 0 -10
91 -10 245 l0 244 48 15 c26 8 50 15 55 15 4 1 7 -111 7 -247z m0 -570 l0
-247 -196 -53 c-108 -30 -198 -52 -200 -49 -7 7 -124 450 -120 454 2 2 118 35
257 72 140 38 255 69 257 70 1 0 2 -110 2 -247z m-5587 74 c114 -48 169 -216
107 -325 -42 -74 -102 -102 -186 -87 -48 10 -125 86 -142 142 -53 178 74 333
221 270z m-744 -330 c7 -8 11 -30 9 -48 -3 -28 -7 -33 -32 -36 -16 -2 -32 2
-37 10 -13 20 -11 76 4 81 23 10 45 7 56 -7z m6331 -311 l0 -245 -22 -5 c-13
-3 -162 -43 -333 -89 -170 -46 -311 -83 -312 -82 -6 5 -122 451 -118 454 4 4
762 210 778 211 4 1 7 -109 7 -244z m-5365 -228 c52 -30 92 -89 106 -158 28
-140 -73 -268 -194 -245 -169 32 -229 306 -89 401 48 33 121 34 177 2z m5335
-149 c6 -24 15 -59 21 -78 5 -19 9 -108 9 -197 l0 -162 -37 -10 c-21 -6 -173
-46 -338 -91 -165 -44 -304 -80 -310 -80 -9 0 -126 417 -125 447 0 7 10 15 23
18 12 3 177 48 367 100 190 51 353 94 362 94 12 1 21 -12 28 -41z m-6075 -7
c82 -38 128 -115 128 -216 2 -212 -245 -272 -337 -82 -89 180 47 373 209 298z
m918 -685 c175 -75 170 -384 -7 -413 -84 -13 -170 38 -208 125 -23 51 -25 145
-5 193 39 90 135 132 220 95z m-743 -336 c6 -12 10 -33 8 -48 -2 -21 -9 -28
-32 -30 -33 -4 -41 3 -50 40 -11 49 51 81 74 38z"/>
<path d="M6297 11649 c7 -7 15 -10 18 -7 3 3 -2 9 -12 12 -14 6 -15 5 -6 -5z"/>
<path d="M7181 11054 c-12 -15 -21 -38 -21 -51 0 -34 42 -73 80 -73 38 0 80
39 80 73 0 42 -36 77 -80 77 -30 0 -43 -6 -59 -26z"/>
<path d="M7438 11049 c-21 -12 -24 -49 -6 -67 39 -39 100 17 63 58 -20 22 -32
24 -57 9z"/>
<path d="M6912 10905 c-38 -32 -46 -65 -28 -110 28 -67 114 -79 161 -23 35 42
34 91 -4 129 -38 38 -87 39 -129 4z"/>
<path d="M6703 10690 c-12 -10 -24 -28 -28 -40 -15 -46 49 -110 95 -95 12 4
30 16 40 28 63 67 -40 170 -107 107z"/>
<path d="M6645 10436 c-19 -29 -10 -54 21 -62 30 -8 54 11 54 40 0 47 -49 62
-75 22z"/>
<path d="M7597 11414 c-12 -12 -8 -42 6 -47 21 -8 39 8 35 29 -3 19 -29 30
-41 18z"/>
<path d="M6008 10783 c7 -3 16 -2 19 1 4 3 -2 6 -13 5 -11 0 -14 -3 -6 -6z"/>
<path d="M7408 10741 c-151 -49 -367 -210 -475 -355 -24 -32 -43 -69 -43 -83
0 -25 2 -26 50 -20 61 7 197 76 295 149 142 107 278 268 262 312 -8 20 -18 20
-89 -3z"/>
<path d="M6240 10374 c-11 -12 -10 -18 3 -31 8 -9 23 -13 31 -10 21 8 21 43 0
51 -21 8 -20 8 -34 -10z"/>
<path d="M8677 9032 c-9 -10 -23 -34 -32 -55 -8 -20 -17 -37 -19 -37 -1 0 -17
7 -34 16 -18 8 -46 14 -64 12 -31 -3 -33 -5 -31 -40 1 -21 9 -51 17 -66 15
-29 15 -29 -23 -40 -20 -7 -48 -23 -60 -36 l-23 -25 27 -25 c15 -14 42 -30 60
-36 l33 -11 -20 -45 c-37 -84 -6 -114 79 -79 47 20 50 19 56 -13 3 -15 17 -40
32 -56 l26 -28 25 23 c13 12 29 37 36 56 14 38 14 38 61 18 20 -8 48 -15 62
-15 22 0 25 4 25 35 0 20 -7 51 -15 71 -14 34 -14 35 11 44 14 6 29 10 33 10
16 0 53 50 48 64 -4 9 -28 26 -54 38 -26 13 -49 23 -51 24 -2 1 4 16 12 33 9
16 16 46 16 66 0 32 -2 35 -30 35 -17 0 -47 -7 -67 -15 -19 -8 -37 -15 -38
-15 -2 0 -6 12 -10 27 -8 35 -43 83 -59 83 -7 0 -20 -8 -29 -18z m118 -136
c46 -35 65 -74 65 -131 0 -58 -23 -109 -62 -136 -112 -80 -268 -3 -268 133 1
134 159 215 265 134z"/>
<path d="M8654 8861 c-56 -24 -79 -94 -49 -151 19 -37 43 -50 95 -50 90 0 134
102 73 170 -30 33 -82 46 -119 31z"/>
<path d="M12930 8735 l0 -35 305 0 305 0 0 35 0 35 -305 0 -305 0 0 -35z"/>
<path d="M13147 5332 l-77 -77 79 -79 79 -79 76 68 c41 37 77 74 81 83 4 11
-17 39 -67 89 -40 40 -77 73 -83 73 -6 0 -45 -35 -88 -78z"/>
</g>
</svg>
